<svg id="Golem" xmlns="http://www.w3.org/2000/svg" viewBox="0 0 1000 1000"><defs><style>.cls-1{fill:#063;}.cls-2{fill:#ff0;}.cls-3{fill:#030;}.cls-4{fill:#fff;}</style></defs><rect id="Face" class="cls-1" x="235.8" y="235.8" width="528.39" height="528.39" rx="70"/><rect id="Left_Eye" data-name="Left Eye" class="cls-2" x="328.47" y="377.39" width="100" height="60"/><rect id="Right_Eye" data-name="Right Eye" class="cls-2" x="571.53" y="377.39" width="100" height="60"/><path class="cls-3" d="M235.8,602.3H764.2a0,0,0,0,1,0,0v91.9a70,70,0,0,1-70,70H305.8a70,70,0,0,1-70-70V602.3A0,0,0,0,1,235.8,602.3Z"/><rect class="cls-1" x="474.32" y="602.3" width="51.36" height="161.9"/><rect class="cls-1" x="621.53" y="602.3" width="51.36" height="161.9"/><rect class="cls-1" x="328.47" y="602.3" width="51.36" height="161.9"/><polygon class="cls-4" points="295.43 545.08 262.39 602.3 328.47 602.3 295.43 545.08"/><polygon class="cls-4" points="705.93 545.08 672.89 602.3 738.97 602.3 705.93 545.08"/></svg>